<svg width="16" height="16" viewBox="0 0 16 16" fill="none" xmlns="http://www.w3.org/2000/svg">
<rect width="16" height="16" fill="url(#paint0_linear_501_4389)"/>
<path d="M7.826 12C7.746 12 7.678 11.976 7.622 11.928C7.574 11.872 7.55 11.804 7.55 11.724V8.88L4.658 3.996C4.634 3.948 4.622 3.896 4.622 3.84C4.622 3.776 4.646 3.72 4.694 3.672C4.742 3.624 4.798 3.6 4.862 3.6H5.438C5.582 3.6 5.686 3.668 5.75 3.804L8.126 7.728L10.49 3.804C10.57 3.668 10.674 3.6 10.802 3.6H11.378C11.442 3.6 11.498 3.624 11.546 3.672C11.602 3.72 11.63 3.776 11.63 3.84C11.63 3.88 11.614 3.932 11.582 3.996L8.69 8.88V11.724C8.69 11.804 8.662 11.872 8.606 11.928C8.558 11.976 8.49 12 8.402 12H7.826Z" fill="white"/>
<defs>
<linearGradient id="paint0_linear_501_4389" x1="8" y1="0" x2="8" y2="16" gradientUnits="userSpaceOnUse">
<stop stop-color="#010101"/>
<stop offset="1" stop-color="#717171"/>
</linearGradient>
</defs>
</svg>
