<svg width="302" height="243" viewBox="0 0 302 243" fill="none" xmlns="http://www.w3.org/2000/svg">
<path d="M205.362 114.861C210.406 120.026 219.775 122.302 224.714 122.924C225.063 122.968 225.186 123.422 224.903 123.631L211.908 133.222C211.866 133.253 211.817 133.275 211.766 133.287C202.145 135.435 193.175 125.852 189.615 120.407C189.48 120.2 189.581 119.924 189.816 119.845L204.962 114.763C205.103 114.715 205.258 114.754 205.362 114.861Z" stroke="black" stroke-width="1.56939" stroke-linecap="round"/>
<path d="M198.038 122.598C199.578 122.305 202.929 121.392 204.008 120.084" stroke="black" stroke-width="1.56939" stroke-linecap="round"/>
<path d="M202.122 126.053C203.1 126.084 205.348 125.625 206.521 123.541" stroke="black" stroke-width="1.56939" stroke-linecap="round"/>
<path d="M206.835 128.568C208.266 128.378 211.338 127.295 212.177 124.483" stroke="black" stroke-width="1.56939" stroke-linecap="round"/>
<path d="M144.593 114.055C145.273 113.845 147.075 113.646 148.834 114.526" stroke="black" stroke-width="1.56939" stroke-linecap="round"/>
<path d="M138.308 122.224C139.523 122.224 140.507 121.169 140.507 119.868C140.507 118.566 139.523 117.511 138.308 117.511C137.093 117.511 136.109 118.566 136.109 119.868C136.109 121.169 137.093 122.224 138.308 122.224Z" fill="black"/>
<path d="M156.218 125.366C157.433 125.366 158.418 124.311 158.418 123.01C158.418 121.708 157.433 120.653 156.218 120.653C155.003 120.653 154.019 121.708 154.019 123.01C154.019 124.311 155.003 125.366 156.218 125.366Z" fill="black"/>
<path d="M132.967 116.097C133.124 115.102 134.098 113.206 136.737 113.583" stroke="black" stroke-width="1.56939" stroke-linecap="round"/>
<path d="M153.076 115.783C154.333 114.683 157.475 113.144 159.988 115.783" stroke="black" stroke-width="1.56939" stroke-linecap="round"/>
<path d="M146.321 118.454C147.787 120.863 149.84 126.026 146.321 127.409L144.593 128.037" stroke="black" stroke-width="1.56939" stroke-linecap="round"/>
<path d="M140.351 132.907C140.718 133.902 142.11 135.546 144.75 134.164" stroke="black" stroke-width="1.56939" stroke-linecap="round"/>
<path d="M89.7629 109.813C84.6099 126.78 98.9271 139.087 106.73 143.119C113.768 138.846 123.802 136.678 128.096 136.049C122.755 131.65 121.131 123.586 120.712 119.868C117.884 120.81 110.343 117.197 113.8 109.813C116.565 103.906 119.56 106.933 120.712 109.185L128.41 112.641C128.41 105.477 133.333 103.058 135.794 102.743C137.302 101.738 138.936 98.4491 139.565 96.9305C140.319 102.838 148.048 107.142 151.819 108.556C156.72 104.66 160.669 106.933 162.03 108.556L165.487 108.085C172.242 105.781 184.371 97.9045 178.84 84.8335C173.31 71.7625 161.873 74.1505 156.846 76.9784C139.628 65.5412 122.335 82.2674 115.842 92.0603C109.296 90.9081 94.9159 92.8458 89.7629 109.813Z" fill="black"/>
<path d="M128.254 112.798L120.713 108.87" stroke="black" stroke-width="1.56939" stroke-linecap="round"/>
<path d="M144.435 112.484C144.435 117.902 140.732 122.067 136.423 122.067C132.114 122.067 128.411 117.902 128.411 112.484C128.411 107.065 132.114 102.9 136.423 102.9C140.732 102.9 144.435 107.065 144.435 112.484Z" stroke="black" stroke-width="1.56939"/>
<path d="M165.173 115.94C165.173 121.358 161.47 125.523 157.161 125.523C152.852 125.523 149.149 121.358 149.149 115.94C149.149 110.521 152.852 106.357 157.161 106.357C161.47 106.357 165.173 110.521 165.173 115.94Z" stroke="black" stroke-width="1.56939"/>
<path d="M165.487 146.225C177.552 136.547 170.671 123.497 165.644 118.103C162.879 131.174 156.48 136.799 153.704 138.055L158.103 140.412L165.487 146.225Z" fill="black"/>
<path d="M121.655 112.484C121.393 109.603 118.042 102.743 114.428 109.185C112.857 112.117 111.726 118.391 119.77 120.025" stroke="black" stroke-width="1.56939" stroke-linecap="round"/>
<path d="M118.985 111.384C118.252 112.012 117.162 113.646 118.67 115.155" stroke="black" stroke-width="1.56939" stroke-linecap="round"/>
<path d="M164.545 119.553C163.665 124.581 161.716 129.134 159.674 131.965C158.397 133.734 156.328 135.968 153.69 137.915" stroke="black" stroke-width="1.56939" stroke-linecap="round"/>
<path d="M120.556 120.025C120.451 126.413 122.944 135.892 134.381 140.919C136.14 141.693 137.87 142.136 139.551 142.315" stroke="black" stroke-width="1.56939" stroke-linecap="round"/>
<path d="M143.179 218.843L139.722 192.606C152.919 179.158 174.128 181.138 183.083 183.809L189.838 197.162C192.614 201.98 200.27 213.47 208.691 220.885C208.691 222.299 203.286 223.87 181.669 218.843C160.052 213.815 146.478 226.279 142.393 233.139" stroke="black" stroke-width="1.56939" stroke-linecap="round"/>
<path d="M205.077 222.77L202.877 229.526L149.934 236.595C147.891 238.323 142.958 240.743 139.565 236.595C136.171 232.448 86.621 234.867 62.27 236.595" stroke="black" stroke-width="1.56939" stroke-linecap="round"/>
<path d="M146.792 233.139C137.47 224.027 109.715 209.731 73.2674 225.441" stroke="black" stroke-width="1.56939" stroke-linecap="round"/>
<path d="M80.0228 199.833L73.2674 225.284" stroke="black" stroke-width="1.56939" stroke-linecap="round"/>
<path d="M73.2673 194.177L62.27 236.595" stroke="black" stroke-width="1.56939" stroke-linecap="round"/>
<path d="M62.27 236.559L73.2673 225.248" stroke="black" stroke-width="1.56939" stroke-linecap="round"/>
<path d="M139.565 191.978C135.129 185.543 119.618 174.75 93.0625 183.056" stroke="black" stroke-width="1.56939" stroke-linecap="round"/>
<path d="M153.076 231.568C154.909 229.002 160.805 224.121 169.729 225.127" stroke="black" stroke-width="1.56939" stroke-linecap="round"/>
<path d="M152.605 148.617C150.091 147.989 147.682 150.031 146.792 151.131C146.321 152.126 146.101 154.085 148.991 153.959C152.605 153.802 153.704 148.617 157.946 156.944C161.34 163.605 161.56 176.687 161.245 182.395" stroke="black" stroke-width="1.56939" stroke-linecap="round" stroke-linejoin="round"/>
<path d="M144.381 146.889C143.561 148.67 142.896 152.011 146.792 151.131" stroke="black" stroke-width="1.56939" stroke-linecap="round" stroke-linejoin="round"/>
<path d="M145.897 140.762C143.698 141.705 140.508 145.098 141.765 147.361C141.922 147.622 142.393 148.115 143.022 147.989C143.297 147.934 143.746 147.455 144.381 146.889C145.56 145.84 147.383 144.494 149.934 145.004" stroke="black" stroke-width="1.56939" stroke-linecap="round" stroke-linejoin="round"/>
<path d="M189.995 196.377C191.566 188.679 189.901 168.947 170.672 151.602L157.946 140.448L149.934 136.206L148.363 135.892L142.393 137.306L141.765 137.934L139.722 141.705C139.408 142.49 140.759 143.402 143.022 142.648" stroke="black" stroke-width="1.56939" stroke-linecap="round" stroke-linejoin="round"/>
<path d="M127.626 136.678C117.414 138.039 90.9043 143.893 74.8389 167.627C59.698 189.995 76.8222 199.422 89.5476 199.893" stroke="black" stroke-width="1.56939" stroke-linecap="round" stroke-linejoin="round"/>
<path d="M1 199.833L71.8535 196.377" stroke="black" stroke-width="1.56939" stroke-linecap="round" stroke-linejoin="round"/>
<path d="M189.524 196.027L240.18 193.042" stroke="black" stroke-width="1.56939" stroke-linecap="round"/>
<path d="M138.623 13.8228C138.465 12.5659 139.891 9.04656 143.964 9.89517C147.577 10.648 148.363 14.6083 145.849 16.9648C144.435 18.4374 142.519 20.9238 143.021 23.5632" stroke="black" stroke-width="1.56939" stroke-linecap="round"/>
<path d="M158.417 14.137C159.549 4.83643 152.919 4.1871 149.463 5.02496C143.43 -2.26463 138.151 1.98763 136.266 5.02496C126.965 3.89381 126.106 10.6283 126.84 14.137C120.304 19.4156 124.116 25.0295 126.84 27.1765C125.457 36.2257 132.652 37.3358 136.423 36.7599C141.827 43.7981 147.368 39.4831 149.463 36.4457C158.386 37.5768 159.15 30.7375 158.417 27.1765C165.833 21.6465 161.507 16.1793 158.417 14.137Z" stroke="black" stroke-width="1.56939"/>
<path d="M141.973 28.6705C142.346 29.3564 143.205 29.6098 143.891 29.2365C144.577 28.8632 144.83 28.0046 144.457 27.3187C144.083 26.6328 143.225 26.3794 142.539 26.7527C141.853 27.126 141.6 27.9846 141.973 28.6705Z" fill="black"/>
<path opacity="0.4" d="M203.043 45.1508C202.924 44.2063 204.005 41.5619 207.094 42.1994C209.834 42.765 210.429 45.7412 208.523 47.512C207.451 48.6184 205.998 50.4869 206.379 52.4702" stroke="black" stroke-width="1.56939" stroke-linecap="round"/>
<path opacity="0.4" d="M218.148 45.4144C219.007 38.3975 213.969 37.9077 211.343 38.5395C206.758 33.04 202.747 36.248 201.315 38.5395C194.247 37.6861 193.594 42.7672 194.152 45.4144C189.185 49.3966 192.082 53.6321 194.152 55.2519C193.101 62.0793 198.569 62.9166 201.434 62.4821C205.541 67.7922 209.751 64.5367 211.343 62.2452C218.124 63.0986 218.705 57.9387 218.148 55.2519C223.782 51.0798 220.496 46.9552 218.148 45.4144Z" stroke="black" stroke-width="1.56939"/>
<path opacity="0.4" d="M205.707 56.3452C205.989 56.8646 206.64 57.0565 207.159 56.7738C207.678 56.4912 207.87 55.841 207.587 55.3216C207.305 54.8023 206.655 54.6104 206.135 54.8931C205.616 55.1757 205.424 55.8259 205.707 56.3452Z" fill="black"/>
<path opacity="0.3" d="M66.99 54.3376C66.9048 53.6507 67.6768 51.7274 69.8832 52.1912C71.8401 52.6025 72.2655 54.7671 70.9041 56.0547C70.1383 56.8597 69.1002 58.2183 69.3726 59.6608" stroke="black" stroke-width="1.56939" stroke-linecap="round"/>
<path opacity="0.3" d="M77.9202 54.6056C78.5445 49.5091 74.8853 49.1532 72.9777 49.6125C69.6481 45.618 66.7347 47.9479 65.6941 49.6125C60.5609 48.9926 60.0867 52.683 60.4914 54.6056C56.8844 57.4982 58.9886 60.5743 60.4914 61.751C59.7286 66.7095 63.6998 67.3178 65.7808 67.0023C68.7636 70.8589 71.8217 68.4945 72.9777 66.8301C77.9029 67.4497 78.3249 63.7022 77.9202 61.751C82.013 58.7204 79.6257 55.7248 77.9202 54.6056Z" stroke="black" stroke-width="1.56939"/>
<path opacity="0.3" d="M68.828 62.6323C69.0336 63.0102 69.5066 63.1498 69.8845 62.9441C70.2623 62.7385 70.4019 62.2655 70.1963 61.8876C69.9906 61.5098 69.5176 61.3702 69.1398 61.5758C68.7619 61.7815 68.6223 62.2545 68.828 62.6323Z" fill="black"/>
<path d="M52.373 242.686L72.011 196.341L62.2706 236.559L93.5341 235.46L109.244 234.988H124.798L132.81 235.302L139.722 236.873L52.373 242.686Z" fill="black"/>
<path d="M148.991 201.826C151.767 197.112 161.214 188.786 176.798 193.185" stroke="black" stroke-width="1.56939" stroke-linecap="round"/>
<path d="M152.134 212.565C156.166 206.543 169.006 196.698 188.11 205.496" stroke="black" stroke-width="1.56939" stroke-linecap="round"/>
<path d="M136.737 214.527C128.516 210.128 107.516 203.184 89.2923 210.599" stroke="black" stroke-width="1.56939" stroke-linecap="round"/>
<path d="M133.281 199.797C130.558 198.226 123.76 195.555 118.356 197.441" stroke="black" stroke-width="1.56939" stroke-linecap="round"/>
<path d="M211.588 140.883L196.506 141.512" stroke="black" stroke-width="1.56939" stroke-linecap="round"/>
<path d="M211.745 140.883L231.54 142.611" stroke="black" stroke-width="1.56939" stroke-linecap="round"/>
<path d="M231.697 142.611L227.77 161.307" stroke="black" stroke-width="1.56939" stroke-linecap="round"/>
<path d="M227.77 161.307L211.274 164.135" stroke="black" stroke-width="1.56939" stroke-linecap="round"/>
<path d="M211.274 163.978V144.34" stroke="black" stroke-width="1.56939" stroke-linecap="round"/>
<path d="M211.274 144.497L231.54 142.769" stroke="black" stroke-width="1.56939" stroke-linecap="round"/>
<path d="M211.273 144.497L196.506 141.512" stroke="black" stroke-width="1.56939" stroke-linecap="round"/>
<path d="M196.192 141.512L197.134 156.279" stroke="black" stroke-width="1.56939" stroke-linecap="round"/>
<path d="M197.134 156.279L211.273 164.135" stroke="black" stroke-width="1.56939" stroke-linecap="round"/>
<path d="M211.431 140.883V144.182" stroke="black" stroke-width="1.56939" stroke-linecap="round"/>
<path d="M222.967 148.851L220.21 149.022C219.455 149.068 218.88 149.719 218.927 150.474C218.974 151.229 219.624 151.804 220.379 151.757L223.136 151.586C223.892 151.54 224.466 150.89 224.419 150.134C224.373 149.379 223.722 148.805 222.967 148.851Z" stroke="black" stroke-width="1.56939"/>
<path d="M211.43 168.219L196.506 155.965L211.43 164.292L228.795 161.307H231.225L211.43 168.219Z" fill="black"/>
<path d="M258.11 178.588L250.412 172.618C248.904 171.449 251.146 170.874 252.455 170.733L281.205 167.12C284.818 167.591 292.799 168.785 295.815 169.79C298.832 170.796 297.91 171.78 297.072 172.147C287.646 173.875 267.882 177.614 264.238 178.745C260.593 179.876 258.634 179.112 258.11 178.588Z" stroke="black" stroke-width="1.56939" stroke-linecap="round"/>
<path d="M296.758 170.105C297.858 170.471 301.377 173.781 299.743 181.573C299.115 183.615 297.387 184.872 291.731 184.872H262.352C260.991 184.977 257.859 184.778 256.225 183.144C254.592 181.51 251.251 178.064 249.784 176.546C249.47 176.179 249.156 175.446 250.413 175.446" stroke="black" stroke-width="1.56939" stroke-linecap="round"/>
<path d="M250.412 175.446V172.775" stroke="black" stroke-width="1.56939" stroke-linecap="round"/>
<path d="M250.412 176.389L256.854 181.416C257.639 182.044 259.053 183.144 262.666 182.987C266.218 182.833 285.394 182.463 294.558 182.673C295.922 182.704 297.7 182.044 298.015 178.902C298.422 174.835 297.7 172.304 296.129 172.304" stroke="black" stroke-width="1.56939" stroke-linecap="round"/>
<path d="M250.727 178.117L244.757 178.588C243.919 178.588 242.275 178.997 242.4 180.63C242.526 182.264 242.453 183.197 242.4 183.458C242.243 184.244 243.029 184.872 243.971 185.658L251.512 192.256" stroke="black" stroke-width="1.56939" stroke-linecap="round"/>
<path d="M252.298 184.715L251.512 192.256" stroke="black" stroke-width="1.56939" stroke-linecap="round"/>
<path d="M252.298 184.715L243.814 179.217" stroke="black" stroke-width="1.56939" stroke-linecap="round"/>
<path d="M252.141 184.872L257.482 184.244" stroke="black" stroke-width="1.56939" stroke-linecap="round"/>
<path d="M251.512 192.256L295.815 193.199" stroke="black" stroke-width="1.56939" stroke-linecap="round"/>
<path d="M296.13 184.558L295.816 193.042" stroke="black" stroke-width="1.56939" stroke-linecap="round"/>
<path d="M257.482 189.9C258.003 189.9 258.425 189.477 258.425 188.957C258.425 188.436 258.003 188.014 257.482 188.014C256.962 188.014 256.54 188.436 256.54 188.957C256.54 189.477 256.962 189.9 257.482 189.9Z" fill="black"/>
<path d="M262.509 198.069C263.03 198.069 263.452 197.647 263.452 197.126C263.452 196.606 263.03 196.184 262.509 196.184C261.989 196.184 261.567 196.606 261.567 197.126C261.567 197.647 261.989 198.069 262.509 198.069Z" fill="black"/>
<path d="M291.102 189.585C291.623 189.585 292.045 189.163 292.045 188.643C292.045 188.122 291.623 187.7 291.102 187.7C290.582 187.7 290.16 188.122 290.16 188.643C290.16 189.163 290.582 189.585 291.102 189.585Z" fill="black"/>
<path d="M296.758 198.383C297.279 198.383 297.701 197.961 297.701 197.441C297.701 196.92 297.279 196.498 296.758 196.498C296.238 196.498 295.816 196.92 295.816 197.441C295.816 197.961 296.238 198.383 296.758 198.383Z" fill="black"/>
<path d="M247.114 192.885L254.812 200.268C255.911 201.368 258.739 201.682 265.023 201.682C270.839 201.682 291.312 201.106 300.843 201.211" stroke="black" stroke-width="1.56939" stroke-linecap="round"/>
<path d="M301 193.199L300.843 201.211" stroke="black" stroke-width="1.56939" stroke-linecap="round"/>
<path d="M301 193.199L296.129 190.999" stroke="black" stroke-width="1.56939" stroke-linecap="round"/>
<path d="M248.056 189.271C248.108 190.214 247.961 192.225 246.956 192.727" stroke="black" stroke-width="1.56939" stroke-linecap="round"/>
<path d="M256.54 192.727C256.959 193.199 257.482 194.613 257.011 196.812C256.643 198.53 256.068 200.111 254.812 199.954" stroke="black" stroke-width="1.56939" stroke-linecap="round"/>
<path d="M301 193.356L295.187 193.199" stroke="black" stroke-width="1.56939" stroke-linecap="round"/>
<path d="M251.198 196.812L244.286 200.74" stroke="black" stroke-width="1.56939" stroke-linecap="round"/>
<path d="M244.285 200.74C243.291 202.677 241.74 208.092 243.5 214.879" stroke="black" stroke-width="1.56939" stroke-linecap="round"/>
<path d="M243.657 214.879L279.634 217.236C281.781 217.288 286.578 216.921 288.589 215.036C290.6 213.151 294.402 209.014 296.13 207.181" stroke="black" stroke-width="1.56939" stroke-linecap="round"/>
<path d="M296.129 207.181V202.468" stroke="black" stroke-width="1.56939" stroke-linecap="round"/>
<path d="M295.972 202.311L286.86 210.637C286.494 211.056 285.101 211.768 282.461 211.266C279.822 210.763 259.786 205.82 250.098 203.411C248.265 202.992 245.228 203.096 245.071 207.024C244.862 208.805 245.165 212.428 248.056 212.68C250.947 212.931 270.836 213.832 280.419 214.251C283.038 214.408 288.117 214.879 293.459 210.009" stroke="black" stroke-width="1.56939" stroke-linecap="round"/>
<path d="M96.3984 200.134C96.5926 200.737 96.4496 201.17 95.693 201.235C93.4536 201.427 90.7942 197.955 89.7448 196.196" stroke="black" stroke-width="1.56939" stroke-linecap="round"/>
<path d="M96.3929 193.316C97.5106 195.102 99.4596 197.853 101.168 199.414C101.012 200.614 99.8401 202.438 96.3986 200.134C95.8745 198.509 92.8939 195.651 92.8939 195.476" stroke="black" stroke-width="1.56939" stroke-linecap="round"/>
<path d="M99.425 191.637C101.563 193.996 105.443 199.051 103.857 200.395C103.576 200.633 103.217 200.656 102.807 200.516C102.319 200.35 101.758 199.953 101.168 199.414C99.4592 197.853 97.5102 195.102 96.3926 193.316" stroke="black" stroke-width="1.56939" stroke-linecap="round"/>
<path d="M81.8494 197.786C85.426 193.307 96.8593 183.598 103.391 189.477C105.996 192.077 109.242 196.775 107.376 198.695C106.443 199.414 104.423 198.454 103.12 196.535" stroke="black" stroke-width="1.56939" stroke-linecap="round"/>
<path d="M94.5908 172.243C92.3389 174.023 88.8094 178.652 92.7056 182.926" stroke="black" stroke-width="1.56939" stroke-linecap="round"/>
</svg>
