<svg width="56" height="19" viewBox="0 0 56 19" fill="none" xmlns="http://www.w3.org/2000/svg">
<path d="M4.376 18H0.824V1.248H7.304C8.12 1.248 8.848 1.376 9.488 1.632C10.128 1.872 10.664 2.224 11.096 2.688C11.544 3.152 11.88 3.712 12.104 4.368C12.328 5.024 12.44 5.76 12.44 6.576C12.44 7.76 12.184 8.776 11.672 9.624C11.16 10.472 10.432 11.032 9.488 11.304L12.776 18H8.84L6.032 11.784H4.376V18ZM6.44 9C7.288 9 7.872 8.84 8.192 8.52C8.528 8.2 8.696 7.672 8.696 6.936V6.216C8.696 5.48 8.528 4.952 8.192 4.632C7.872 4.312 7.288 4.152 6.44 4.152H4.376V9H6.44ZM20.5906 18.288C18.3506 18.288 16.6946 17.528 15.6226 16.008C14.5666 14.488 14.0386 12.36 14.0386 9.624C14.0386 6.888 14.5666 4.76 15.6226 3.24C16.6946 1.72 18.3506 0.959999 20.5906 0.959999C22.8306 0.959999 24.4786 1.72 25.5346 3.24C26.6066 4.76 27.1426 6.888 27.1426 9.624C27.1426 12.36 26.6066 14.488 25.5346 16.008C24.4786 17.528 22.8306 18.288 20.5906 18.288ZM20.5906 15.384C21.6146 15.384 22.3186 15.008 22.7026 14.256C23.1026 13.488 23.3026 12.424 23.3026 11.064V8.16C23.3026 6.816 23.1026 5.768 22.7026 5.016C22.3186 4.248 21.6146 3.864 20.5906 3.864C19.5666 3.864 18.8546 4.248 18.4546 5.016C18.0706 5.768 17.8786 6.816 17.8786 8.16V11.088C17.8786 12.432 18.0706 13.488 18.4546 14.256C18.8546 15.008 19.5666 15.384 20.5906 15.384ZM32.5813 6.864H32.3173V18H29.2453V1.248H33.5653L37.3813 12.384H37.6453V1.248H40.7173V18H36.3973L32.5813 6.864ZM52.0359 15.624H51.8199C51.6759 15.976 51.4999 16.312 51.2919 16.632C51.0839 16.952 50.8279 17.24 50.5239 17.496C50.2199 17.736 49.8599 17.928 49.4439 18.072C49.0439 18.216 48.5879 18.288 48.0759 18.288C47.2599 18.288 46.5319 18.096 45.8919 17.712C45.2679 17.328 44.7399 16.768 44.3079 16.032C43.8759 15.296 43.5479 14.4 43.3239 13.344C43.1159 12.288 43.0119 11.096 43.0119 9.768C43.0119 6.92 43.5319 4.744 44.5719 3.24C45.6119 1.72 47.2199 0.959999 49.3959 0.959999C50.2599 0.959999 51.0199 1.08 51.6759 1.32C52.3319 1.544 52.8919 1.872 53.3559 2.304C53.8359 2.72 54.2279 3.224 54.5319 3.816C54.8359 4.408 55.0759 5.064 55.2519 5.784L51.8919 6.6C51.7959 6.248 51.6839 5.912 51.5559 5.592C51.4439 5.256 51.2919 4.96 51.0999 4.704C50.9079 4.448 50.6679 4.248 50.3799 4.104C50.0919 3.944 49.7399 3.864 49.3239 3.864C48.4119 3.864 47.7639 4.24 47.3799 4.992C47.0119 5.744 46.8279 6.8 46.8279 8.16V10.896C46.8279 12.256 47.0279 13.344 47.4279 14.16C47.8439 14.976 48.5719 15.384 49.6119 15.384C50.4279 15.384 51.0359 15.144 51.4359 14.664C51.8359 14.184 52.0359 13.568 52.0359 12.816V11.592H49.1799V9.048H55.2519V18H52.0359V15.624Z" fill="#0F172A"/>
</svg>
