<svg width="304" height="223" viewBox="0 0 304 223" fill="none" xmlns="http://www.w3.org/2000/svg">
<path d="M232.579 207.599C223.361 200.088 235.851 199.206 243.248 199.704V204.612L260.958 209.093C255.339 211.725 241.797 215.11 232.579 207.599Z" fill="black"/>
<path d="M281.016 203.119C275.042 203.801 273.264 201.127 273.121 199.705H285.924C286.778 200.558 286.991 202.436 281.016 203.119Z" fill="black"/>
<path d="M267.575 182.421C260.96 182.421 257.333 181.994 251.998 181.567" stroke="black" stroke-width="1.44" stroke-linecap="round"/>
<path d="M272.693 184.981V205.466" stroke="black" stroke-width="1.44" stroke-linecap="round"/>
<path d="M257.333 186.048L243.25 184.981" stroke="black" stroke-width="1.44" stroke-linecap="round"/>
<path d="M263.945 188.182V208.88" stroke="black" stroke-width="1.44" stroke-linecap="round"/>
<path d="M263.733 209.307L272.695 205.679" stroke="black" stroke-width="1.44" stroke-linecap="round"/>
<path d="M251.785 181.567L243.25 184.981" stroke="black" stroke-width="1.44" stroke-linecap="round"/>
<path d="M243.035 185.195V204.826" stroke="black" stroke-width="1.44" stroke-linecap="round"/>
<path d="M242.822 204.612L263.734 209.307" stroke="black" stroke-width="1.44" stroke-linecap="round"/>
<path d="M267.574 182.847V176.873" stroke="black" stroke-width="1.44" stroke-linecap="round"/>
<path d="M286.139 199.491V178.793" stroke="black" stroke-width="1.44" stroke-linecap="round"/>
<path d="M296.166 171.965V195.01" stroke="black" stroke-width="1.44" stroke-linecap="round"/>
<path d="M286.139 199.918L296.168 195.01" stroke="black" stroke-width="1.44" stroke-linecap="round"/>
<path d="M296.167 171.752L273.549 170.898" stroke="black" stroke-width="1.44" stroke-linecap="round"/>
<path d="M267.574 176.873L273.549 170.898" stroke="black" stroke-width="1.44" stroke-linecap="round"/>
<path d="M286.139 178.58L295.954 172.178" stroke="black" stroke-width="1.44" stroke-linecap="round"/>
<path d="M286.138 199.491H273.549" stroke="black" stroke-width="1.44" stroke-linecap="round"/>
<path d="M267.787 176.873L279.95 177.3" stroke="black" stroke-width="1.44" stroke-linecap="round"/>
<path d="M97.2824 216.581C97.4957 210.607 121.394 212.527 122.888 212.741V216.581L130.143 221.702C119.118 221.987 97.1117 221.361 97.2824 216.581Z" fill="black"/>
<path d="M156.602 215.941V194.176" stroke="black" stroke-width="1.44" stroke-linecap="round"/>
<path d="M138.037 221.489V197.59" stroke="black" stroke-width="1.44" stroke-linecap="round"/>
<path d="M122.674 215.941V192.043" stroke="black" stroke-width="1.44" stroke-linecap="round"/>
<path d="M122.674 192.043L139.531 187.775" stroke="black" stroke-width="1.44" stroke-linecap="round"/>
<path d="M156.601 193.963L138.037 197.377" stroke="black" stroke-width="1.44" stroke-linecap="round"/>
<path d="M138.037 221.702L156.601 216.155" stroke="black" stroke-width="1.44" stroke-linecap="round"/>
<path d="M156.602 193.963L139.531 187.775" stroke="black" stroke-width="1.44" stroke-linecap="round"/>
<path d="M122.674 192.256L138.251 197.377" stroke="black" stroke-width="1.44" stroke-linecap="round"/>
<path d="M177.404 215.514C173.478 208.686 186.01 207.69 192.767 208.046V212.954L214.745 215.514C203.934 218.359 181.33 222.342 177.404 215.514Z" fill="black"/>
<path d="M225.627 206.339L217.305 214.874" stroke="black" stroke-width="1.44" stroke-linecap="round"/>
<path d="M215.385 188.842L193.834 187.348" stroke="black" stroke-width="1.44" stroke-linecap="round"/>
<path d="M202.582 181.8L225.627 182.867" stroke="black" stroke-width="1.44" stroke-linecap="round"/>
<path d="M193.407 187.348L192.34 212.1" stroke="black" stroke-width="1.44" stroke-linecap="round"/>
<path d="M225.627 183.294V205.912" stroke="black" stroke-width="1.44" stroke-linecap="round"/>
<path d="M217.305 196.737V214.874" stroke="black" stroke-width="1.44" stroke-linecap="round"/>
<path d="M193.406 187.348L202.582 181.8" stroke="black" stroke-width="1.44" stroke-linecap="round"/>
<path d="M217.306 214.874L192.127 212.313" stroke="black" stroke-width="1.44" stroke-linecap="round"/>
<path d="M172.953 55.5917C173.878 55.307 176.325 55.0369 178.715 56.2318" stroke="black" stroke-width="1.44" stroke-linecap="round"/>
<path d="M164.419 66.6874C166.069 66.6874 167.406 65.2544 167.406 63.4867C167.406 61.719 166.069 60.286 164.419 60.286C162.769 60.286 161.432 61.719 161.432 63.4867C161.432 65.2544 162.769 66.6874 164.419 66.6874Z" fill="black"/>
<path d="M188.743 70.9548C190.393 70.9548 191.731 69.5218 191.731 67.7541C191.731 65.9864 190.393 64.5534 188.743 64.5534C187.093 64.5534 185.756 65.9864 185.756 67.7541C185.756 69.5218 187.093 70.9548 188.743 70.9548Z" fill="black"/>
<path d="M157.164 58.3657C157.378 57.0142 158.701 54.4395 162.285 54.9516" stroke="black" stroke-width="1.44" stroke-linecap="round"/>
<path d="M184.477 57.9389C186.184 56.4453 190.451 54.3542 193.865 57.9389" stroke="black" stroke-width="1.44" stroke-linecap="round"/>
<path d="M175.3 61.5663C177.292 64.8383 180.08 71.8513 175.3 73.729L172.953 74.5826" stroke="black" stroke-width="1.44" stroke-linecap="round"/>
<path d="M167.193 81.1974C167.692 82.549 169.583 84.7822 173.168 82.9045" stroke="black" stroke-width="1.44" stroke-linecap="round"/>
<path d="M98.4864 49.8302C91.4875 72.8753 110.933 89.5903 121.531 95.0669C131.091 89.2629 144.719 86.3183 150.551 85.4648C143.296 79.4901 141.091 68.5364 140.522 63.4866C136.681 64.7669 126.439 59.8591 131.134 49.8302C134.889 41.8071 138.957 45.9181 140.522 48.9767L150.978 53.6711C150.978 43.9409 157.663 40.6549 161.007 40.2281C163.055 38.8625 165.274 34.3956 166.128 32.333C167.152 40.3561 177.65 46.2028 182.771 48.1232C189.429 42.8314 194.792 45.9181 196.641 48.1232L201.336 47.483C210.511 44.3536 226.984 33.656 219.473 15.9027C211.962 -1.85051 196.428 1.39288 189.6 5.23372C166.213 -10.3004 142.727 12.4174 133.907 25.7182C125.016 24.1533 105.485 26.7851 98.4864 49.8302Z" fill="black"/>
<path d="M150.762 53.8847L140.52 48.5502" stroke="black" stroke-width="1.44" stroke-linecap="round"/>
<path d="M172.741 53.4578C172.741 60.8173 167.712 66.474 161.859 66.474C156.006 66.474 150.977 60.8173 150.977 53.4578C150.977 46.0979 156.006 40.4416 161.859 40.4416C167.712 40.4416 172.741 46.0979 172.741 53.4578Z" stroke="black" stroke-width="1.44"/>
<path d="M200.907 58.1524C200.907 65.5119 195.878 71.1686 190.025 71.1686C184.172 71.1686 179.143 65.5119 179.143 58.1524C179.143 50.7925 184.172 45.1362 190.025 45.1362C195.878 45.1362 200.907 50.7925 200.907 58.1524Z" stroke="black" stroke-width="1.44"/>
<path d="M201.334 99.2854C217.721 86.1411 208.375 68.4165 201.547 61.0903C197.792 78.8435 189.1 86.4825 185.33 88.1896L191.305 91.3903L201.334 99.2854Z" fill="black"/>
<path d="M141.801 53.4578C141.446 49.5456 136.894 40.2282 131.986 48.9768C129.852 52.9597 128.316 61.4809 139.241 63.7" stroke="black" stroke-width="1.44" stroke-linecap="round"/>
<path d="M138.174 51.9641C137.178 52.8176 135.698 55.0368 137.747 57.0852" stroke="black" stroke-width="1.44" stroke-linecap="round"/>
<path d="M200.055 63.06C198.861 69.8882 196.214 76.0732 193.44 79.9171C191.706 82.3206 188.896 85.3544 185.313 87.999" stroke="black" stroke-width="1.44" stroke-linecap="round"/>
<path d="M140.307 63.7001C140.165 72.3775 143.551 85.2516 159.085 92.0797C161.474 93.13 163.824 93.7326 166.107 93.9754" stroke="black" stroke-width="1.44" stroke-linecap="round"/>
<path d="M183.836 102.535C180.422 101.682 177.151 104.456 175.941 105.949C175.301 107.301 175.003 109.961 178.929 109.79C183.836 109.577 185.33 102.535 191.091 113.844C195.7 122.892 195.999 140.659 195.572 148.412" stroke="black" stroke-width="1.44" stroke-linecap="round" stroke-linejoin="round"/>
<path d="M172.665 100.188C171.552 102.607 170.648 107.144 175.94 105.949" stroke="black" stroke-width="1.44" stroke-linecap="round" stroke-linejoin="round"/>
<path d="M174.725 91.8665C171.738 93.1467 167.406 97.7558 169.113 100.828C169.326 101.184 169.966 101.853 170.82 101.682C171.194 101.607 171.803 100.956 172.666 100.188C174.268 98.7633 176.743 96.9347 180.208 97.6277" stroke="black" stroke-width="1.44" stroke-linecap="round" stroke-linejoin="round"/>
<path d="M234.437 165.137C236.571 154.681 234.492 130.147 208.375 106.589L191.091 91.4394L180.208 85.6782L178.075 85.2514L169.967 87.1718L169.113 88.0253L166.339 93.1465C165.912 94.2134 167.747 95.451 170.82 94.4268" stroke="black" stroke-width="1.44" stroke-linecap="round" stroke-linejoin="round"/>
<path d="M149.911 86.3185C136.041 88.1677 100.035 96.1183 78.2149 128.354C57.6501 158.736 80.9086 171.538 98.1924 172.179" stroke="black" stroke-width="1.44" stroke-linecap="round" stroke-linejoin="round"/>
<path d="M1 176.446L97.2343 171.752" stroke="black" stroke-width="1.44" stroke-linecap="round" stroke-linejoin="round"/>
<path d="M123.481 170.685L302.784 162.873" stroke="black" stroke-width="1.44" stroke-linecap="round"/>
<path d="M107.496 172.506C107.76 173.324 107.566 173.912 106.538 174.001C103.497 174.261 99.8845 169.547 98.4591 167.157" stroke="black" stroke-width="1.44" stroke-linecap="round"/>
<path d="M107.489 163.246C109.007 165.671 111.654 169.408 113.975 171.528C113.763 173.158 112.171 175.635 107.497 172.506C106.785 170.298 102.736 166.417 102.736 166.179" stroke="black" stroke-width="1.44" stroke-linecap="round"/>
<path d="M111.607 160.965C114.511 164.169 119.781 171.035 117.627 172.86C117.245 173.183 116.758 173.215 116.201 173.025C115.538 172.799 114.776 172.26 113.974 171.528C111.654 169.408 109.006 165.671 107.488 163.246" stroke="black" stroke-width="1.44" stroke-linecap="round"/>
<path d="M87.7345 169.316C92.5923 163.233 108.121 150.047 116.992 158.032C120.53 161.562 124.939 167.944 122.405 170.551C121.137 171.528 118.394 170.225 116.625 167.618" stroke="black" stroke-width="1.44" stroke-linecap="round"/>
<path d="M105.041 134.623C101.983 137.042 97.1891 143.329 102.481 149.133" stroke="black" stroke-width="1.44" stroke-linecap="round"/>
</svg>
